<svg xmlns="http://www.w3.org/2000/svg" viewBox="0 0 1898.81 286.33"><defs><style>.cls-1{fill:#3e3a39;}.cls-2{fill:#cd4136;}</style></defs><g id="レイヤー_2" data-name="レイヤー 2"><g id="レイヤー_1-2" data-name="レイヤー 1"><path class="cls-1" d="M36.52,130.24c-60.64,52.41-37.17,94.34,8.15,120.52,94.14,54.36,211.53,39,298-2,5-2.37,2.79-2.74-.64-1.72-94.88,28.17-170.79,29-248.51-17.7-106-63.72,115.5-169.44,356.07-180-4.39,13.19-7.1,25.33-11.25,40,40.74-36.89,73.74-65,98.21-87.71C336.73-8.5,153.64,29,36.52,130.24Z"/><path class="cls-1" d="M1245.17,237.75c93.36,8.85,229.5-47.33,222.34-81.83-2.15-10.32-19.82-30.88-31.84-33.13-100.69-18.87-276.91,38.12-262.18,118,10.5,56.91,216.71,68.69,288.73-16.54C1419.46,251,1290,291.18,1245.17,237.75Zm-4.9-18.1c22.34-38.43,125.4-79.1,162.26-58.57C1362.13,215.44,1265.73,230.68,1240.27,219.65Z"/><path class="cls-1" d="M1184.91,155.92c15.14-9.18,82-33.62,119.68-36.79-94.09,0-154.59-5.77-221.13,36.79,11.53-11.52,30.08-29.71,37-36.76l-68.33,0C936.32,234.78,896.85,286.07,810.93,286.07c66.89,0,136.18,5.39,211.39-69.81C1090.08,148.5,1114.33,155.88,1184.91,155.92Z"/><path class="cls-2" d="M1862,155.92l36.8-36.79H1633.54c-74,0-146.3,37.38-161.42,83.47S1504.78,286,1578.79,286s146.34-37.34,161.46-83.44c5.63-17.18,2.52-33.14-7.42-46.42Zm-186.28,46.67C1667.89,228.22,1630.4,249,1592,249s-63.18-20.76-55.34-46.39,45.34-46.41,83.73-46.41S1683.57,177,1675.73,202.59Z"/><path class="cls-2" d="M820.17,119.13l-36.78,36.78h54c0,69.91-94.08,105.52-147.27,79.06C725.65,199,852.84,72.05,893.44,31.61H824.29C785.82,70.09,657.17,198.52,621.12,234.78c-16.75,16.85-8.23,51.55,84.37,51.55S884,254.51,884,155.92H996l36.8-36.79Z"/><path class="cls-1" d="M590.89,119.05C578.51,131.44,517.32,196,485.56,227.86c-21.56,15.81-70.45,15.16-76.88-8.8-1.54-5.71,1.63-14.07,8.29-21.76,29.45-34.05,72.79-41.45,105.54-41.45h13.33c8.59-9,28.7-30.32,35.65-36.8l-48.5,0c-50.87,0-108.87,18.2-144.54,54.48-49.65,50.5-34.11,112.42,5,112.42,23,0,42.57-.92,78.81-22.57,0,15.6,22.35,22.57,45.35,22.57h14c37.63,0,81.65-52.38,97.62-68.65-8,6.94-53.61,44-73.34,24.23-16.08-16.08,33.79-57.44,65.25-85.7h70c6.81-6.61,29-28.95,36.79-36.8Z"/></g></g></svg>