<svg xmlns="http://www.w3.org/2000/svg" viewBox="0 0 950 950"><defs><style>.cls-1{fill:#cd4136;}.cls-2{fill:#fff;}</style></defs><g id="レイヤー_2" data-name="レイヤー 2"><g id="レイヤー_1-2" data-name="レイヤー 1"><circle class="cls-1" cx="475" cy="475" r="475"/><path class="cls-2" d="M493,542.07l15.08,109.74A136.81,136.81,0,1,1,545.3,922.88C650.46,908.44,724,811.48,709.55,706.32S598.14,527.62,493,542.07Z"/><path class="cls-2" d="M831.1,184.14c.35,6.45.55,13,.55,19.49,0,197-159.68,356.64-356.65,356.64S118.35,400.6,118.35,203.63c0-6.54.2-13,.55-19.49a369.6,369.6,0,0,0-13.29,98.17c0,204,165.38,369.38,369.39,369.38S844.39,486.31,844.39,282.31A369.6,369.6,0,0,0,831.1,184.14Z"/><path class="cls-2" d="M745.19,101.28a282.72,282.72,0,0,1,12.55,83.52C757.74,341,631.15,467.54,475,467.54S192.26,341,192.26,184.8a282.72,282.72,0,0,1,12.55-83.52c-37.52,56.8-59.61,125.91-59.61,200.53,0,193.24,147.66,349.88,329.8,349.88S804.8,495.05,804.8,301.81C804.8,227.19,782.71,158.08,745.19,101.28Z"/><path class="cls-1" d="M465.78,642.34c-82.07-2.45-158.93-37.54-217.28-99.45-60.67-64.36-94.08-150-94.08-241.08a356.49,356.49,0,0,1,29.82-143.56Q183,171.47,183,184.8c0,157.9,126,286.93,282.74,291.82Z"/><path class="cls-2" d="M175.09,212.47c13.45,147.1,133.15,264,281.48,273V632.69a293.09,293.09,0,0,1-102.4-25.31,310,310,0,0,1-99-70.81,332.35,332.35,0,0,1-67-105.4,353,353,0,0,1-13.15-218.7m29.72-111.19c-37.52,56.8-59.61,125.91-59.61,200.53,0,193.24,147.66,349.88,329.8,349.88V467.54C318.85,467.54,192.26,341,192.26,184.8a282.72,282.72,0,0,1,12.55-83.52Z"/><path class="cls-2" d="M590.15,722c3,6.94-8.14,23.86-8.57,25.53s-20.32,12.3-21.18,13.8c10.32,4.56,16.06-3.72,18,0,7,13.67-31.65,18-42.64,9.78,3,4.12,11.13,7.24,4.16,14.08-2,1.92-13,.75-27.75-10.32-2.8-2.11,1.79-10.07,2.14-22.93.24-9-15.28-49.5-15.28-50.81,0-1.67-41.19-53.38-42.09-63.66-1.09-12.29,50.76,5,50.41,6.78-6.45,32.88,3.87,42.51,10.85,53.26-2.15-29.63,28.37-4.39,29.9-2.28-17.43-1.21-24.55-4.42-16.09,20.11,3.29,9.54,5.42,26.34,11.93,28.56,11.83,4,29.5-3.09,30-3.09,2.86,0,6.95-10.87,6.3-13.54-1.47-6-9.79-8.31-13.41-12.2C565.63,708.26,588.34,717.8,590.15,722Z"/><path class="cls-2" d="M477.94,785.37c.18,7.54-16.46,19.1-17.47,20.48s-23.45,3.82-24.81,4.9c7.88,8.08,16.29,2.54,16.67,6.71,1.36,15.28-36.06,4.85-43.21-6.84,1.25,5,7.62,10.87-1.39,14.61-2.54,1-12.35-4.16-21.9-19.93-1.81-3,5.43-8.67,10.55-20.47,3.57-8.22-5.61-56.06-5.12-57.27.62-1.55,34.61-96.71,37.61-106.59,2.55-8.43,57.3-1.93,58.92,19.11.64,8.41-50,42.8-50.28,43.23-18.25,28.1-19.67,39.9-17.2,52.47,9.07-28.28,28,6.52,28.58,9.05-15.72-7.63-21.12-13.27-22.43,12.65-.51,10.08-4.8,26.46.41,30.95,9.47,8.15,28.52,8.15,29,8.35,2.65,1.06,10.51-7.5,10.9-10.21.89-6.15-6-11.37-7.88-16.33C460.33,763.45,477.84,780.78,477.94,785.37Z"/><path class="cls-2" d="M328.46,781.09c-7,2.91-23.78-8.38-25.43-8.82s-12.1-20.45-13.6-21.32c-4.66,10.28,3.56,16.1-.19,18-13.73,6.84-17.64-31.82-9.35-42.73-4.15,3-7.35,11.06-14.12,4-1.9-2-.62-13,10.6-27.65,2.13-2.78,10.05,1.9,22.91,2.38,9,.33,76.28-23.18,80.45-28.52,10.54-13.47,31.86-25.94-3-49.31-7.65-5.13,71.43,2.69,70,24.78-.48,7.51-63.5,52.39-63.95,52.45-13.27,1.85-18.35-1.84-29.16,5,29.64-1.85,4.1,28.41,2,29.92,1.38-17.42,4.67-24.5-19.95-16.29-9.58,3.19-26.39,5.16-28.68,11.64-4.15,11.8,2.79,29.53,2.78,30.06,0,2.86,10.81,7.07,13.48,6.44,6.05-1.41,8.41-9.7,12.34-13.28C342.47,756.71,332.7,779.32,328.46,781.09Z"/><path class="cls-2" d="M234.29,562.56A367.94,367.94,0,0,0,475,651.76V467.61c-78.83,0-104.6-16.8-145.93-20.79-49-4.73-125.23,61.1-149.68,83.26-14.75,2.15-22.15,12-27.36,24.48-9.37,22.46-13.54,60.79-5.09,81.7,3.64,9,23.06,12.34,33,10.63-21.45-13.66-18.94-37.21-11.8-54.33C177.26,570.66,214.17,571.46,234.29,562.56Z"/></g></g></svg>